<svg xmlns="http://www.w3.org/2000/svg" version="1.1" xmlns:xlink="http://www.w3.org/1999/xlink" width="512" height="512" x="0" y="0" viewBox="0 0 24 24" style="enable-background:new 0 0 512 512" xml:space="preserve" class=""><g><path d="M17 12a.5.5 0 0 1-.5.5h-4v4a.5.5 0 0 1-1 0v-4h-4a.5.5 0 0 1 0-1h4v-4a.5.5 0 0 1 1 0v4h4a.5.5 0 0 1 .5.5Zm7-7.5v15c0 2.481-2.019 4.5-4.5 4.5h-15A4.505 4.505 0 0 1 0 19.5v-15C0 2.019 2.019 0 4.5 0h15C21.981 0 24 2.019 24 4.5Zm-1 0C23 2.57 21.43 1 19.5 1h-15C2.57 1 1 2.57 1 4.5v15C1 21.43 2.57 23 4.5 23h15c1.93 0 3.5-1.57 3.5-3.5v-15Z" fill="#ffffff" opacity="1" data-original="#000000" class=""></path></g></svg>