<svg xmlns="http://www.w3.org/2000/svg" version="1.1" xmlns:xlink="http://www.w3.org/1999/xlink" width="512" height="512" x="0" y="0" viewBox="0 0 24 24" style="enable-background:new 0 0 512 512" xml:space="preserve" class=""><g><path d="M18 5H1c-.55 0-1-.45-1-1s.45-1 1-1h17c.55 0 1 .45 1 1s-.45 1-1 1Zm1 15c0-.55-.45-1-1-1H1c-.55 0-1 .45-1 1s.45 1 1 1h17c.55 0 1-.45 1-1Zm5-8c0-.55-.45-1-1-1H6c-.55 0-1 .45-1 1s.45 1 1 1h17c.55 0 1-.45 1-1Z" fill="#f1c5c5" opacity="1" data-original="#000000" class=""></path></g></svg>