<svg xmlns="http://www.w3.org/2000/svg" version="1.1" xmlns:xlink="http://www.w3.org/1999/xlink" width="512" height="512" x="0" y="0" viewBox="0 0 24 24" style="enable-background:new 0 0 512 512" xml:space="preserve" class=""><g><path d="M20.786 4.758c-.101-.024-1.614-.372-3.841-.64l-.852-2.457a.499.499 0 0 0-.38-.327C15.642 1.32 13.929 1 12 1s-3.642.321-3.714.334a.5.5 0 0 0-.379.328l-.852 2.456c-2.226.268-3.74.616-3.842.64a.501.501 0 0 0 .226.974c.01-.002.266-.061.715-.148a62.108 62.108 0 0 0-.385 6.738c0 5.306.865 9.19.902 9.353a.5.5 0 0 0 .346.369c.131.039 3.268.956 6.981.956s6.85-.917 6.981-.956a.5.5 0 0 0 .347-.37c.036-.165.901-4.091.901-9.352 0-2.46-.185-5.067-.383-6.738.448.087.703.146.713.148a.5.5 0 1 0 .227-.974ZM8.756 2.269C9.309 2.181 10.606 2 12 2s2.689.18 3.245.269l.6 1.731c-1.168-.111-2.475-.19-3.845-.19s-2.676.078-3.845.19l.6-1.731ZM19.23 12.323c0 4.343-.619 7.835-.817 8.841-.85.221-3.48.837-6.412.837s-5.564-.616-6.413-.837c-.198-.999-.816-4.464-.816-8.841 0-2.551.214-5.35.416-6.923 1.591-.264 4.101-.589 6.813-.589s5.226.325 6.815.589c.208 1.613.414 4.348.414 6.923Z" fill="#ffffff" opacity="1" data-original="#000000" class=""></path><path d="M9.558 9.118a.5.5 0 0 0-.5.5v8.042a.5.5 0 0 0 1 0V9.618a.5.5 0 0 0-.5-.5ZM14.442 18.16a.5.5 0 0 0 .5-.5V9.618a.5.5 0 0 0-1 0v8.042a.5.5 0 0 0 .5.5Z" fill="#ffffff" opacity="1" data-original="#000000" class=""></path></g></svg>